<svg width="22" height="22" viewBox="0 0 22 22" fill="none" xmlns="http://www.w3.org/2000/svg">
<path id="Vector" d="M19.5982 12.7045L21.3525 4.02089C21.4791 3.39391 21.0555 2.79688 20.484 2.79688H5.90811L5.56796 0.926145C5.48321 0.459861 5.1185 0.125 4.69541 0.125H0.890625C0.39874 0.125 0 0.573583 0 1.12695V1.79492C0 2.34829 0.39874 2.79688 0.890625 2.79688H3.48394L6.0908 17.1346C5.46714 17.5381 5.04687 18.2947 5.04687 19.1621C5.04687 20.4533 5.97728 21.5 7.125 21.5C8.27272 21.5 9.20312 20.4533 9.20312 19.1621C9.20312 18.5077 8.96388 17.9166 8.5788 17.4922H16.3587C15.9736 17.9166 15.7344 18.5077 15.7344 19.1621C15.7344 20.4533 16.6648 21.5 17.8125 21.5C18.9602 21.5 19.8906 20.4533 19.8906 19.1621C19.8906 18.2365 19.4124 17.4366 18.7187 17.0578L18.9235 16.0443C19.0501 15.4174 18.6265 14.8203 18.055 14.8203H8.09418L7.8513 13.4844H18.7297C19.1456 13.4844 19.5061 13.1607 19.5982 12.7045Z" fill="black"/>
</svg>
